0
SECTION
2
HEADER
9
$INSUNITS
70
4
0
ENDSEC
0
SECTION
2
TABLES
0
TABLE
2
LTYPE
0
LTYPE
72
65
70
64
2
CONTINUOUS
3
______
73
0
40
0
0
ENDTAB
0
TABLE
2
LAYER
0
ENDTAB
0
ENDSEC
0
SECTION
2
ENTITIES
0
LINE
8
0
10
217.226234
20
-120.0833288
11
198.7085068
21
-91.5685295
0
ARC
8
0
10
198.2891715
20
-91.840849
40
0.5
50
33
51
52.3879614
0
LINE
8
0
10
184.3602767
20
-76.6533003
11
198.5943273
21
-91.4447683
0
ARC
8
0
10
184
20
-77
40
0.5
50
403.8998088
51
80.0737545
0
LINE
8
0
10
164.0861902
20
-73.0074848
11
184.0861902
21
-76.5074848
0
ARC
8
0
10
164
20
-73.5
40
0.5
50
440.07375
51
90
0
LINE
8
0
10
90
20
-73
11
164
21
-73
0
ARC
8
0
10
90
20
-73.5
40
0.5
50
90
51
180
0
LINE
8
0
10
89.5
20
-109.5
11
89.5
21
-73.5
0
ARC
8
0
10
90
20
-109.5
40
0.5
50
180
51
270
0
LINE
8
0
10
138
20
-110
11
90
21
-110
0
ARC
8
0
10
138
20
-109.5
40
0.5
50
269.9999973
51
303.1785117
0
LINE
8
0
10
158.0479913
20
-96.9890912
11
138.2736247
21
-109.9184848
0
LINE
8
0
10
159.6897395
20
-96.5
11
170.3769957
21
-96.5
0
LINE
8
0
10
182.2965843
20
-101.9699003
11
171.6909039
21
-96.8030303
0
LINE
8
0
10
183.4986879
20
-103.032953
11
201.2914932
21
-130.4314705
0
ARC
8
0
10
201.7108285
20
-130.159151
40
0.5
50
213
51
302.9999929
0
LINE
8
0
10
201.983148
20
-130.5784863
11
217.0792182
21
-120.7749836
0
ARC
8
0
10
216.8068987
20
-120.3556483
40
0.5
50
302.9999973
51
33
0
ARC
8
0
10
159.6897395
20
-99.5
40
3
50
90
51
123.1785139
0
ARC
8
0
10
170.3769957
20
-99.5
40
3
50
64.025608
51
90
0
ARC
8
0
10
180.9826761
20
-104.6668699
40
3
50
32.9999973
51
64.025608
0
LINE
8
0
10
289.2914932
20
-91.5685295
11
270.773766
21
-120.0833288
0
ARC
8
0
10
271.1931013
20
-120.3556483
40
0.5
50
147
51
237.0000027
0
LINE
8
0
10
270.9207818
20
-120.7749836
11
286.016852
21
-130.5784863
0
ARC
8
0
10
286.2891715
20
-130.159151
40
0.5
50
236.9999998
51
327.0000027
0
LINE
8
0
10
286.7085068
20
-130.4314705
11
304.5013121
21
-103.032953
0
LINE
8
0
10
305.7034157
20
-101.9699003
11
316.3090961
21
-96.8030303
0
LINE
8
0
10
317.6230043
20
-96.5
11
328.3102605
21
-96.5
0
LINE
8
0
10
329.9520087
20
-96.9890912
11
349.7263753
21
-109.9184848
0
ARC
8
0
10
350
20
-109.5
40
0.5
50
236.8214883
51
270.0000027
0
LINE
8
0
10
350
20
-110
11
398
21
-110
0
ARC
8
0
10
398
20
-109.5
40
0.5
50
270
51
0
0
LINE
8
0
10
398.5
20
-109.5
11
398.5
21
-73.5
0
ARC
8
0
10
398
20
-73.5
40
0.5
50
0
51
90
0
LINE
8
0
10
398
20
-73
11
324
21
-73
0
ARC
8
0
10
324
20
-73.5
40
0.5
50
90
51
99.92625
0
LINE
8
0
10
323.9138098
20
-73.0074848
11
303.9138098
21
-76.5074848
0
ARC
8
0
10
304
20
-77
40
0.5
50
99.9262455
51
136.1001912
0
LINE
8
0
10
303.6397233
20
-76.6533003
11
289.4056727
21
-91.4447683
0
ARC
8
0
10
289.7108285
20
-91.840849
40
0.5
50
487.6120386
51
147
0
ARC
8
0
10
307.0173238
20
-104.66687
40
3
50
115.974392
51
147.0000027
0
ARC
8
0
10
317.6230043
20
-99.5
40
3
50
90
51
115.974392
0
ARC
8
0
10
328.3102605
20
-99.5
40
3
50
56.8214861
51
90
0
LINE
8
0
10
91.25
20
-91.25
11
108.75
21
-91.25
0
LINE
8
0
10
108.75
20
-91.25
11
108.75
21
-74.75
0
LINE
8
0
10
108.75
20
-74.75
11
91.25
21
-74.75
0
LINE
8
0
10
91.25
20
-74.75
11
91.25
21
-91.25
0
LINE
8
0
10
91.25
20
-108.25
11
108.75
21
-108.25
0
LINE
8
0
10
108.75
20
-108.25
11
108.75
21
-91.75
0
LINE
8
0
10
108.75
20
-91.75
11
91.25
21
-91.75
0
LINE
8
0
10
91.25
20
-91.75
11
91.25
21
-108.25
0
LINE
8
0
10
109.25
20
-91.25
11
126.75
21
-91.25
0
LINE
8
0
10
126.75
20
-91.25
11
126.75
21
-74.75
0
LINE
8
0
10
126.75
20
-74.75
11
109.25
21
-74.75
0
LINE
8
0
10
109.25
20
-74.75
11
109.25
21
-91.25
0
LINE
8
0
10
109.25
20
-108.25
11
126.75
21
-108.25
0
LINE
8
0
10
126.75
20
-108.25
11
126.75
21
-91.75
0
LINE
8
0
10
126.75
20
-91.75
11
109.25
21
-91.75
0
LINE
8
0
10
109.25
20
-91.75
11
109.25
21
-108.25
0
LINE
8
0
10
127.25
20
-91.25
11
144.75
21
-91.25
0
LINE
8
0
10
144.75
20
-91.25
11
144.75
21
-74.75
0
LINE
8
0
10
144.75
20
-74.75
11
127.25
21
-74.75
0
LINE
8
0
10
127.25
20
-74.75
11
127.25
21
-91.25
0
LINE
8
0
10
145.25
20
-91.25
11
162.75
21
-91.25
0
LINE
8
0
10
162.75
20
-91.25
11
162.75
21
-74.75
0
LINE
8
0
10
162.75
20
-74.75
11
145.25
21
-74.75
0
LINE
8
0
10
145.25
20
-74.75
11
145.25
21
-91.25
0
LINE
8
0
10
379.25
20
-91.25
11
396.75
21
-91.25
0
LINE
8
0
10
396.75
20
-91.25
11
396.75
21
-74.75
0
LINE
8
0
10
396.75
20
-74.75
11
379.25
21
-74.75
0
LINE
8
0
10
379.25
20
-74.75
11
379.25
21
-91.25
0
LINE
8
0
10
379.25
20
-108.25
11
396.75
21
-108.25
0
LINE
8
0
10
396.75
20
-108.25
11
396.75
21
-91.75
0
LINE
8
0
10
396.75
20
-91.75
11
379.25
21
-91.75
0
LINE
8
0
10
379.25
20
-91.75
11
379.25
21
-108.25
0
LINE
8
0
10
361.25
20
-91.25
11
378.75
21
-91.25
0
LINE
8
0
10
378.75
20
-91.25
11
378.75
21
-74.75
0
LINE
8
0
10
378.75
20
-74.75
11
361.25
21
-74.75
0
LINE
8
0
10
361.25
20
-74.75
11
361.25
21
-91.25
0
LINE
8
0
10
361.25
20
-108.25
11
378.75
21
-108.25
0
LINE
8
0
10
378.75
20
-108.25
11
378.75
21
-91.75
0
LINE
8
0
10
378.75
20
-91.75
11
361.25
21
-91.75
0
LINE
8
0
10
361.25
20
-91.75
11
361.25
21
-108.25
0
LINE
8
0
10
343.25
20
-91.25
11
360.75
21
-91.25
0
LINE
8
0
10
360.75
20
-91.25
11
360.75
21
-74.75
0
LINE
8
0
10
360.75
20
-74.75
11
343.25
21
-74.75
0
LINE
8
0
10
343.25
20
-74.75
11
343.25
21
-91.25
0
LINE
8
0
10
325.25
20
-91.25
11
342.75
21
-91.25
0
LINE
8
0
10
342.75
20
-91.25
11
342.75
21
-74.75
0
LINE
8
0
10
342.75
20
-74.75
11
325.25
21
-74.75
0
LINE
8
0
10
325.25
20
-74.75
11
325.25
21
-91.25
0
ENDSEC
0
EOF