<?xml version="1.0" standalone="no"?>
 <!DOCTYPE svg PUBLIC "-//W3C//DTD SVG 1.1//EN" 
 "http://www.w3.org/Graphics/SVG/1.1/DTD/svg11.dtd"> 
<svg
  xmlns:svg="http://www.w3.org/2000/svg"
  xmlns="http://www.w3.org/2000/svg"
  xmlns:xlink="http://www.w3.org/1999/xlink"
  version="1.1"
  width="419.9890mm" height="297.0022mm" viewBox="0.0000 0.0000 419.9890 297.0022">
<title>SVG Image created as revolver_reversible-User_Drawings.svg date 2025/02/27 14:54:21 </title>
  <desc>Image generated by PCBNEW </desc>
<g style="fill:#000000; fill-opacity:1.0000;stroke:#000000; stroke-opacity:1.0000;
stroke-linecap:round; stroke-linejoin:round;"
 transform="translate(0 0) scale(1 1)">
<path style="fill:none; 
stroke:#000000; stroke-width:0.0265; stroke-opacity:1; 
stroke-linecap:round; stroke-linejoin:round;fill:none"
d="M 132.2841,118.7448
132.2933,118.7450
132.3023,118.7457
132.3112,118.7468
132.3200,118.7483
132.3286,118.7503
132.3370,118.7526
132.3453,118.7554
132.3534,118.7585
132.3613,118.7621
132.3690,118.7659
132.3765,118.7702
132.3838,118.7747
132.3908,118.7797
132.3976,118.7849
132.4041,118.7904
132.4104,118.7962
132.4163,118.8024
132.4220,118.8088
132.4274,118.8154
132.4324,118.8223
132.4371,118.8295
132.4415,118.8369
132.4456,118.8445
132.4493,118.8523
132.4526,118.8604
132.4555,118.8686
132.4581,118.8770
132.4602,118.8856
132.4620,118.8943
132.4633,118.9032
132.4641,118.9122
132.4646,118.9213
132.4740,119.3532
132.6622,119.5499
132.7725,119.4779
133.2421,119.5118
133.2496,119.5125
133.2568,119.5138
133.2638,119.5154
133.2707,119.5174
133.2773,119.5198
133.2837,119.5226
133.2899,119.5257
133.2958,119.5292
133.3015,119.5331
133.3069,119.5372
133.3120,119.5416
133.3169,119.5463
133.3215,119.5512
133.3258,119.5564
133.3297,119.5619
133.3334,119.5675
133.3367,119.5734
133.3397,119.5794
133.3424,119.5856
133.3447,119.5920
133.3466,119.5984
133.3481,119.6050
133.3493,119.6118
133.3501,119.6186
133.3504,119.6254
133.3504,119.6324
133.3499,119.6393
133.3490,119.6463
133.3477,119.6533
133.3458,119.6603
133.3436,119.6673
133.3409,119.6742
133.2043,119.9912
133.4969,120.2887
133.6789,120.2393
133.6913,120.2362
133.7039,120.2334
133.7165,120.2311
133.7291,120.2292
133.7418,120.2276
133.7545,120.2265
133.7673,120.2258
133.7800,120.2255
133.7928,120.2257
133.8055,120.2262
133.8183,120.2271
133.8310,120.2285
133.8436,120.2303
133.8563,120.2325
133.8688,120.2350
133.8813,120.2380
133.9644,120.2594
133.9801,120.2639
133.9955,120.2691
134.0105,120.2751
134.0251,120.2818
134.0394,120.2892
134.0533,120.2973
134.0667,120.3061
134.0796,120.3155
134.0921,120.3256
134.1040,120.3362
134.1155,120.3475
134.1263,120.3593
134.1366,120.3717
134.1463,120.3847
134.1553,120.3982
134.1637,120.4121
134.1924,120.4628
134.1974,120.4720
134.2025,120.4819
134.2128,120.5034
134.2230,120.5265
134.2327,120.5507
134.2418,120.5752
134.2498,120.5992
134.2565,120.6220
134.2594,120.6327
134.2617,120.6429
134.2660,120.6627
134.2688,120.6765
134.2706,120.6859
134.2718,120.6928
134.2740,120.7059
134.2759,120.7157
134.2788,120.7300
134.5858,121.0370
134.5853,121.6758
135.0363,122.5264
135.0581,122.5659
135.0812,122.6046
135.1056,122.6424
135.1313,122.6794
135.1582,122.7155
135.1864,122.7506
135.2157,122.7848
135.2462,122.8180
135.6514,123.2438
135.6677,123.2614
135.6834,123.2796
135.6985,123.2981
135.7130,123.3172
135.7269,123.3366
135.7402,123.3565
135.7528,123.3767
135.7649,123.3973
135.7762,123.4183
135.7870,123.4397
135.7970,123.4613
135.8064,123.4833
135.8151,123.5056
135.8231,123.5282
135.8305,123.5510
135.8371,123.5741
136.0674,124.4267
136.0715,124.4435
136.0748,124.4605
136.0772,124.4774
136.0789,124.4945
136.0797,124.5116
136.0797,124.5286
136.0789,124.5456
136.0774,124.5626
136.0750,124.5795
136.0718,124.5962
136.0678,124.6128
136.0631,124.6292
136.0575,124.6454
136.0512,124.6614
136.0440,124.6771
136.0362,124.6925
135.9350,124.8787
135.9189,124.9067
135.9015,124.9339
135.8829,124.9601
135.8632,124.9853
135.8423,125.0095
135.8204,125.0326
135.7974,125.0547
135.7734,125.0756
135.7484,125.0954
135.7226,125.1140
135.6958,125.1313
135.6682,125.1475
135.6399,125.1623
135.6107,125.1758
135.5809,125.1879
135.5504,125.1987
134.8691,125.4204
134.8168,125.4364
134.7641,125.4503
134.7108,125.4623
134.6572,125.4723
134.6033,125.4803
134.5491,125.4863
134.4946,125.4903
134.4400,125.4923
134.0000,125.5000
133.9881,125.4999
133.9763,125.4991
133.9647,125.4978
133.9531,125.4958
133.9417,125.4932
133.9305,125.4901
133.9195,125.4863
133.9087,125.4820
133.8981,125.4771
133.8878,125.4716
133.8778,125.4656
133.8681,125.4591
133.8587,125.4521
133.8497,125.4445
133.8411,125.4364
133.8329,125.4279
133.6962,125.2777
133.6881,125.2685
133.6803,125.2590
133.6728,125.2493
133.6656,125.2393
133.6587,125.2292
133.6522,125.2188
133.6460,125.2083
133.6402,125.1976
133.6347,125.1866
133.6295,125.1756
133.6247,125.1643
133.6202,125.1529
133.6162,125.1413
133.6124,125.1296
133.6091,125.1178
133.6061,125.1059
133.5461,124.8467
133.5432,124.8345
133.5399,124.8224
133.5365,124.8103
133.5327,124.7984
133.5288,124.7865
133.5245,124.7748
133.5201,124.7631
133.5153,124.7515
133.5104,124.7400
133.5052,124.7287
133.4997,124.7174
133.4940,124.7063
133.4881,124.6953
133.4819,124.6844
133.4755,124.6736
133.4689,124.6629
133.1946,124.2334
132.6247,123.9417
132.5431,123.9416
132.5377,123.9419
132.5321,123.9428
132.5264,123.9444
132.5205,123.9466
132.5145,123.9495
132.5084,123.9530
132.5021,123.9571
132.4957,123.9617
132.4892,123.9670
132.4826,123.9727
132.4759,123.9790
132.4691,123.9858
132.4552,124.0007
132.4410,124.0175
132.4267,124.0358
132.4121,124.0556
132.3975,124.0767
132.3827,124.0989
132.3680,124.1221
132.3534,124.1461
132.3388,124.1709
132.3244,124.1961
132.2882,124.2573
132.2493,124.3168
132.2078,124.3746
132.1636,124.4305
132.1168,124.4845
132.0676,124.5365
132.0158,124.5863
131.9617,124.6338
131.9051,124.6790
131.8463,124.7217
131.7851,124.7619
131.7218,124.7993
131.6563,124.8340
131.5886,124.8659
131.5189,124.8947
131.4471,124.9204
131.4154,124.9306
131.3835,124.9401
131.3515,124.9489
131.3192,124.9570
131.2868,124.9645
131.2543,124.9712
131.2216,124.9773
131.1888,124.9827
131.1669,124.9859
131.1449,124.9888
131.1229,124.9914
131.1008,124.9937
130.9717,125.0009
130.8441,124.9977
130.7184,124.9843
130.5953,124.9612
130.4752,124.9286
130.3586,124.8868
130.2459,124.8362
130.1377,124.7771
130.0346,124.7098
129.9368,124.6347
129.8451,124.5520
129.7598,124.4622
129.6815,124.3654
129.6106,124.2621
129.5477,124.1525
129.4932,124.0370
129.4778,123.9910
129.4534,123.9092
129.3884,123.6870
129.3529,123.5708
129.3189,123.4674
129.3032,123.4242
129.2888,123.3888
129.2761,123.3627
129.2653,123.3473
129.2564,123.3391
129.2471,123.3314
129.2376,123.3244
129.2278,123.3179
129.2177,123.3120
129.2074,123.3067
129.1970,123.3018
129.1863,123.2974
129.1647,123.2900
129.1428,123.2842
129.1208,123.2798
129.0989,123.2768
129.0774,123.2748
129.0565,123.2736
129.0174,123.2733
128.9561,123.2748
128.3242,123.2748
128.3208,123.2779
128.3114,123.2861
128.3048,123.2916
128.2970,123.2978
128.2883,123.3043
128.2788,123.3111
128.2686,123.3178
128.2578,123.3244
128.2523,123.3275
128.2466,123.3305
128.2409,123.3333
128.2351,123.3360
128.2293,123.3384
128.2234,123.3406
128.2176,123.3426
128.2118,123.3442
128.2060,123.3455
128.2002,123.3465
128.1945,123.3471
128.1889,123.3473
125.4877,123.3473
124.6290,123.5105
123.1078,123.5105
123.1042,123.5104
123.1005,123.5101
123.0970,123.5096
123.0935,123.5090
123.0900,123.5082
123.0866,123.5072
123.0833,123.5061
123.0800,123.5048
123.0769,123.5034
123.0738,123.5018
123.0708,123.5001
123.0679,123.4983
123.0651,123.4963
123.0624,123.4941
123.0598,123.4919
123.0573,123.4895
123.0550,123.4871
123.0527,123.4845
123.0506,123.4818
123.0486,123.4790
123.0468,123.4761
123.0450,123.4731
123.0435,123.4700
123.0420,123.4668
123.0408,123.4636
123.0396,123.4603
123.0387,123.4569
123.0379,123.4534
123.0373,123.4499
123.0368,123.4463
123.0365,123.4427
123.0364,123.4390
123.0364,123.3391
122.6634,123.3391
122.6561,123.3390
122.6488,123.3384
122.6416,123.3375
122.6346,123.3362
122.6277,123.3346
122.6209,123.3327
122.6142,123.3305
122.6077,123.3279
122.6014,123.3250
122.5952,123.3219
122.5892,123.3184
122.5834,123.3147
122.5778,123.3107
122.5724,123.3065
122.5672,123.3020
122.5622,123.2972
122.5575,123.2922
122.5530,123.2871
122.5487,123.2816
122.5447,123.2760
122.5410,123.2702
122.5376,123.2642
122.5344,123.2581
122.5315,123.2517
122.5290,123.2452
122.5267,123.2386
122.5248,123.2318
122.5232,123.2249
122.5219,123.2178
122.5210,123.2106
122.5205,123.2034
122.5203,123.1960
122.5203,122.4782
122.5205,122.4715
122.5210,122.4650
122.5218,122.4585
122.5229,122.4521
122.5244,122.4458
122.5261,122.4397
122.5282,122.4337
122.5305,122.4278
122.5331,122.4220
122.5359,122.4165
122.5391,122.4110
122.5424,122.4058
122.5460,122.4007
122.5499,122.3958
122.5540,122.3911
122.5583,122.3866
122.5628,122.3823
122.5675,122.3782
122.5724,122.3744
122.5774,122.3708
122.5827,122.3674
122.5881,122.3643
122.5937,122.3614
122.5995,122.3588
122.6053,122.3565
122.6114,122.3545
122.6175,122.3527
122.6238,122.3513
122.6302,122.3502
122.6366,122.3493
122.6432,122.3488
122.6499,122.3487
122.7984,122.3487
122.8569,122.2535
122.8582,122.2513
122.8593,122.2489
122.8603,122.2466
122.8610,122.2442
122.8616,122.2419
122.8621,122.2395
122.8623,122.2371
122.8624,122.2347
122.8624,122.2324
122.8622,122.2300
122.8619,122.2277
122.8614,122.2254
122.8607,122.2232
122.8600,122.2210
122.8591,122.2188
122.8580,122.2167
122.8569,122.2147
122.8556,122.2128
122.8542,122.2109
122.8527,122.2091
122.8511,122.2075
122.8494,122.2059
122.8475,122.2044
122.8456,122.2031
122.8435,122.2018
122.8414,122.2007
122.8392,122.1997
122.8369,122.1989
122.8345,122.1982
122.8320,122.1977
122.8295,122.1973
122.8269,122.1971
122.5636,122.1865
122.4049,122.0366
122.4049,119.6542
122.3274,119.3705
122.3259,119.3640
122.3247,119.3575
122.3239,119.3510
122.3235,119.3445
122.3235,119.3381
122.3239,119.3318
122.3246,119.3256
122.3257,119.3194
122.3272,119.3134
122.3289,119.3075
122.3310,119.3017
122.3334,119.2960
122.3361,119.2905
122.3391,119.2852
122.3424,119.2800
122.3460,119.2751
122.3498,119.2703
122.3539,119.2658
122.3582,119.2615
122.3628,119.2574
122.3676,119.2536
122.3727,119.2500
122.3779,119.2467
122.3833,119.2438
122.3890,119.2411
122.3948,119.2387
122.4008,119.2367
122.4069,119.2350
122.4132,119.2336
122.4197,119.2326
122.4263,119.2320
122.4330,119.2318
123.0452,119.2303
128.0378,119.2189
128.6375,118.9276
131.4989,118.9143
131.6070,118.7448
131.6070,118.7447
Z" /> 
</g>
<g style="fill:none; 
stroke:#000000; stroke-width:0.1500; stroke-opacity:1; 
stroke-linecap:round; stroke-linejoin:round;">
<path d="M185.1165 77.6595
L186.9149 75.9229
" />
<path d="M186.9149 75.9229
L189.6240 78.7283
" />
<path d="M189.6240 78.7283
L187.8257 80.4649
" />
<path d="M91.0000 91.5000
L109.0000 91.5000
" />
<path d="M91.0000 108.5000
L91.0000 91.5000
" />
<path d="M93.0000 94.0000
L93.0000 93.0000
" />
<path d="M93.0000 107.0000
L93.0000 106.0000
" />
<path d="M93.0000 107.0000
L94.0000 107.0000
" />
<path d="M94.0000 93.0000
L93.0000 93.0000
" />
<path d="M106.0000 107.0000
L107.0000 107.0000
" />
<path d="M107.0000 93.0000
L106.0000 93.0000
" />
<path d="M107.0000 93.0000
L107.0000 94.0000
" />
<path d="M107.0000 106.0000
L107.0000 107.0000
" />
<path d="M109.0000 91.5000
L109.0000 108.5000
" />
<path d="M109.0000 108.5000
L91.0000 108.5000
" />
<path d="M109.0000 74.5000
L127.0000 74.5000
" />
<path d="M109.0000 91.5000
L109.0000 74.5000
" />
<path d="M111.0000 77.0000
L111.0000 76.0000
" />
<path d="M111.0000 90.0000
L111.0000 89.0000
" />
<path d="M111.0000 90.0000
L112.0000 90.0000
" />
<path d="M112.0000 76.0000
L111.0000 76.0000
" />
<path d="M124.0000 90.0000
L125.0000 90.0000
" />
<path d="M125.0000 76.0000
L124.0000 76.0000
" />
<path d="M125.0000 76.0000
L125.0000 77.0000
" />
<path d="M125.0000 89.0000
L125.0000 90.0000
" />
<path d="M127.0000 74.5000
L127.0000 91.5000
" />
<path d="M127.0000 91.5000
L109.0000 91.5000
" />
<path d="M109.0000 91.5000
L127.0000 91.5000
" />
<path d="M109.0000 108.5000
L109.0000 91.5000
" />
<path d="M111.0000 94.0000
L111.0000 93.0000
" />
<path d="M111.0000 107.0000
L111.0000 106.0000
" />
<path d="M111.0000 107.0000
L112.0000 107.0000
" />
<path d="M112.0000 93.0000
L111.0000 93.0000
" />
<path d="M124.0000 107.0000
L125.0000 107.0000
" />
<path d="M125.0000 93.0000
L124.0000 93.0000
" />
<path d="M125.0000 93.0000
L125.0000 94.0000
" />
<path d="M125.0000 106.0000
L125.0000 107.0000
" />
<path d="M127.0000 91.5000
L127.0000 108.5000
" />
<path d="M127.0000 108.5000
L109.0000 108.5000
" />
</g>
<g style="fill:none; 
stroke:#000000; stroke-width:0.2000; stroke-opacity:1; 
stroke-linecap:round; stroke-linejoin:round;">
<path d="M204.7646 124.8660
L210.9423 120.8542
" />
<path d="M207.5314 129.1264
L204.7646 124.8660
" />
<path d="M210.9423 120.8542
L213.7090 125.1146
" />
<path d="M213.7090 125.1146
L207.5314 129.1264
" />
<path style="fill:none; 
stroke:#000000; stroke-width:0.1200; stroke-opacity:1; 
stroke-linecap:round; stroke-linejoin:round;fill:none"
d="M 258.3711,107.8471
246.8981,115.2977
227.2911,85.1056
238.7641,77.6549
Z" /> 
</g>
<g style="fill:none; 
stroke:#000000; stroke-width:0.1500; stroke-opacity:1; 
stroke-linecap:round; stroke-linejoin:round;">
<path d="M127.0000 74.5000
L145.0000 74.5000
" />
<path d="M127.0000 91.5000
L127.0000 74.5000
" />
<path d="M129.0000 77.0000
L129.0000 76.0000
" />
<path d="M129.0000 90.0000
L129.0000 89.0000
" />
<path d="M129.0000 90.0000
L130.0000 90.0000
" />
<path d="M130.0000 76.0000
L129.0000 76.0000
" />
<path d="M142.0000 90.0000
L143.0000 90.0000
" />
<path d="M143.0000 76.0000
L142.0000 76.0000
" />
<path d="M143.0000 76.0000
L143.0000 77.0000
" />
<path d="M143.0000 89.0000
L143.0000 90.0000
" />
<path d="M145.0000 74.5000
L145.0000 91.5000
" />
<path d="M145.0000 91.5000
L127.0000 91.5000
" />
<path d="M91.0000 74.5000
L109.0000 74.5000
" />
<path d="M91.0000 91.5000
L91.0000 74.5000
" />
<path d="M93.0000 77.0000
L93.0000 76.0000
" />
<path d="M93.0000 90.0000
L93.0000 89.0000
" />
<path d="M93.0000 90.0000
L94.0000 90.0000
" />
<path d="M94.0000 76.0000
L93.0000 76.0000
" />
<path d="M106.0000 90.0000
L107.0000 90.0000
" />
<path d="M107.0000 76.0000
L106.0000 76.0000
" />
<path d="M107.0000 76.0000
L107.0000 77.0000
" />
<path d="M107.0000 89.0000
L107.0000 90.0000
" />
<path d="M109.0000 74.5000
L109.0000 91.5000
" />
<path d="M109.0000 91.5000
L91.0000 91.5000
" />
<path d="M185.1165 77.6595
L186.9149 75.9229
" />
<path d="M186.9149 75.9229
L189.6240 78.7283
" />
<path d="M189.6240 78.7283
L187.8257 80.4649
" />
<path d="M145.0000 74.5000
L163.0000 74.5000
" />
<path d="M145.0000 91.5000
L145.0000 74.5000
" />
<path d="M147.0000 77.0000
L147.0000 76.0000
" />
<path d="M147.0000 90.0000
L147.0000 89.0000
" />
<path d="M147.0000 90.0000
L148.0000 90.0000
" />
<path d="M148.0000 76.0000
L147.0000 76.0000
" />
<path d="M160.0000 90.0000
L161.0000 90.0000
" />
<path d="M161.0000 76.0000
L160.0000 76.0000
" />
<path d="M161.0000 76.0000
L161.0000 77.0000
" />
<path d="M161.0000 89.0000
L161.0000 90.0000
" />
<path d="M163.0000 74.5000
L163.0000 91.5000
" />
<path d="M163.0000 91.5000
L145.0000 91.5000
" />
<path d="M217.4901 89.2374
L217.4901 53.2374
" />
<path d="M217.4901 53.2374
L203.4901 53.2374
" />
<path d="M203.4901 89.2374
L217.4901 89.2374
" />
<path d="M203.4901 53.2374
L203.4901 89.2374
" />
</g> 
</svg>
