%TF.GenerationSoftware,KiCad,Pcbnew,9.0.0*%
%TF.CreationDate,2025-02-26T19:39:31-08:00*%
%TF.ProjectId,revolver_reversible,7265766f-6c76-4657-925f-726576657273,v1.0.0*%
%TF.SameCoordinates,Original*%
%TF.FileFunction,Profile,NP*%
%FSLAX46Y46*%
G04 Gerber Fmt 4.6, Leading zero omitted, Abs format (unit mm)*
G04 Created by KiCad (PCBNEW 9.0.0) date 2025-02-26 19:39:31*
%MOMM*%
%LPD*%
G01*
G04 APERTURE LIST*
%TA.AperFunction,Profile*%
%ADD10C,0.150000*%
%TD*%
G04 APERTURE END LIST*
D10*
X182296584Y-101969900D02*
G75*
G02*
X183498705Y-103032942I-1313884J-2697000D01*
G01*
X198594328Y-91444769D02*
G75*
G02*
X198708502Y-91568533I-305128J-396031D01*
G01*
X89500000Y-109500000D02*
X89500000Y-73500000D01*
X89500000Y-73500000D02*
G75*
G02*
X90000000Y-73000000I500000J0D01*
G01*
X217226234Y-120083329D02*
X198708507Y-91568530D01*
X138000000Y-110000000D02*
X90000000Y-110000000D01*
X217226235Y-120083329D02*
G75*
G02*
X217079182Y-120774928I-419335J-272271D01*
G01*
X183498688Y-103032953D02*
X201291493Y-130431470D01*
X90000000Y-73000000D02*
X164000000Y-73000000D01*
X138273625Y-109918485D02*
G75*
G02*
X138000000Y-110000000I-273625J418485D01*
G01*
X158047991Y-96989091D02*
G75*
G02*
X159689739Y-96500021I1641709J-2510909D01*
G01*
X182296584Y-101969900D02*
X171690904Y-96803030D01*
X170376996Y-96500000D02*
G75*
G02*
X171690905Y-96803029I4J-3000000D01*
G01*
X164086190Y-73007485D02*
X184086190Y-76507485D01*
X159689739Y-96500000D02*
X170376996Y-96500000D01*
X90000000Y-110000000D02*
G75*
G02*
X89500000Y-109500000I0J500000D01*
G01*
X164000000Y-73000000D02*
G75*
G02*
X164086190Y-73007485I0J-500000D01*
G01*
X201983148Y-130578486D02*
X217079218Y-120774984D01*
X201983148Y-130578487D02*
G75*
G02*
X201291471Y-130431484I-272348J419287D01*
G01*
X158047991Y-96989091D02*
X138273625Y-109918485D01*
X184360277Y-76653300D02*
X198594327Y-91444768D01*
X184086190Y-76507484D02*
G75*
G02*
X184360277Y-76653300I-86190J-492516D01*
G01*
M02*
