M48
; DRILL file {KiCad 9.0.0} date 2025-02-26T19:39:46-0800
; FORMAT={-:-/ absolute / metric / decimal}
; #@! TF.CreationDate,2025-02-26T19:39:46-08:00
; #@! TF.GenerationSoftware,Kicad,Pcbnew,9.0.0
; #@! TF.FileFunction,NonPlated,1,2,NPTH
FMAT,2
METRIC
; #@! TA.AperFunction,NonPlated,NPTH,ComponentDrill
T1C0.750
; #@! TA.AperFunction,NonPlated,NPTH,ComponentDrill
T2C0.900
; #@! TA.AperFunction,NonPlated,NPTH,ComponentDrill
T3C1.702
; #@! TA.AperFunction,NonPlated,NPTH,ComponentDrill
T4C3.000
; #@! TA.AperFunction,NonPlated,NPTH,ComponentDrill
T5C3.429
; #@! TA.AperFunction,NonPlated,NPTH,ComponentDrill
T6C4.000
%
G90
G05
T1
X190.011Y-88.755
X190.011Y-88.755
X191.989Y-86.845
X191.989Y-86.845
T2
X184.458Y-78.921
X184.458Y-78.921
X186.542Y-81.079
X186.542Y-81.079
T3
X94.5Y-83.0
X94.5Y-100.0
X105.5Y-83.0
X105.5Y-100.0
X112.5Y-83.0
X112.5Y-100.0
X123.5Y-83.0
X123.5Y-100.0
X130.5Y-83.0
X141.5Y-83.0
X148.5Y-83.0
X159.5Y-83.0
T4
X95.0Y-79.25
X95.0Y-96.25
X100.0Y-77.05
X100.0Y-77.05
X100.0Y-94.05
X100.0Y-94.05
X105.0Y-79.25
X105.0Y-96.25
X113.0Y-79.25
X113.0Y-96.25
X118.0Y-77.05
X118.0Y-77.05
X118.0Y-94.05
X118.0Y-94.05
X123.0Y-79.25
X123.0Y-96.25
X131.0Y-79.25
X136.0Y-77.05
X136.0Y-77.05
X141.0Y-79.25
X149.0Y-79.25
X154.0Y-77.05
X154.0Y-77.05
X159.0Y-79.25
T5
X100.0Y-83.0
X100.0Y-100.0
X118.0Y-83.0
X118.0Y-100.0
X136.0Y-83.0
X154.0Y-83.0
T6
X173.5Y-83.0
M30
