M48
; DRILL file {KiCad 9.0.0} date 2025-02-26T19:39:46-0800
; FORMAT={-:-/ absolute / metric / decimal}
; #@! TF.CreationDate,2025-02-26T19:39:46-08:00
; #@! TF.GenerationSoftware,Kicad,Pcbnew,9.0.0
; #@! TF.FileFunction,Plated,1,2,PTH
FMAT,2
METRIC
; #@! TA.AperFunction,Plated,PTH,ViaDrill
T1C0.400
; #@! TA.AperFunction,Plated,PTH,ComponentDrill
T2C0.750
; #@! TA.AperFunction,Plated,PTH,ComponentDrill
T3C1.092
%
G90
G05
T1
X92.0Y-82.0
X92.0Y-93.5
X103.124Y-81.0
X105.412Y-91.912
X108.275Y-99.0
X110.5Y-77.0
X121.124Y-81.0
X122.912Y-92.412
X128.512Y-77.013
X133.258Y-100.539
X135.133Y-98.714
X139.124Y-81.0
X141.769Y-103.321
X146.5Y-77.0
X157.124Y-81.0
X180.5Y-77.14
X181.944Y-82.444
X185.0Y-86.502
X187.0Y-85.5
T2
X162.0Y-90.0
X162.0Y-92.0
X166.0Y-90.0
X166.0Y-92.0
T3
X186.001Y-103.434
X186.24Y-97.767
X187.384Y-105.564
X188.37Y-96.383
X188.767Y-107.694
X190.151Y-109.825
X190.5Y-95.0
X191.534Y-111.955
X192.63Y-93.617
X192.918Y-114.085
X194.301Y-116.215
X194.76Y-92.233
X195.158Y-103.544
X195.684Y-118.345
X197.068Y-120.476
X197.288Y-102.161
X198.451Y-122.606
X198.782Y-95.134
X199.419Y-100.777
X199.835Y-124.736
X200.165Y-97.264
X201.218Y-126.866
X201.549Y-99.394
X202.932Y-101.524
X204.316Y-103.655
X205.699Y-105.785
X207.082Y-107.915
X208.466Y-110.045
X209.849Y-112.175
X211.233Y-114.306
X212.616Y-116.436
X213.999Y-118.566
M30
